<?xml version="1.0" encoding="UTF-8"?>
<svg version="1.1" xmlns="http://www.w3.org/2000/svg" width="800" height="800">
<path d="M0 0 C82.5 0 165 0 250 0 C250 16.5 250 33 250 50 C299.5 50 349 50 400 50 C400 66.5 400 83 400 100 C416.5 100 433 100 450 100 C450 116.5 450 133 450 150 C466.5 150 483 150 500 150 C500 216 500 282 500 350 C483.5 350 467 350 450 350 C450 366.5 450 383 450 400 C433.5 400 417 400 400 400 C400 416.5 400 433 400 450 C350.5 450 301 450 250 450 C250 466.5 250 483 250 500 C167.5 500 85 500 0 500 C0 483.5 0 467 0 450 C-49.5 450 -99 450 -150 450 C-150 433.5 -150 417 -150 400 C-166.5 400 -183 400 -200 400 C-200 383.5 -200 367 -200 350 C-216.5 350 -233 350 -250 350 C-250 284 -250 218 -250 150 C-233.5 150 -217 150 -200 150 C-200 133.5 -200 117 -200 100 C-183.5 100 -167 100 -150 100 C-150 83.5 -150 67 -150 50 C-100.5 50 -51 50 0 50 C0 33.5 0 17 0 0 Z " fill="#404040" transform="translate(250,150)"/>
<path d="M0 0 C66 0 132 0 200 0 C200 66 200 132 200 200 C183.5 200 167 200 150 200 C150 216.5 150 233 150 250 C100.5 250 51 250 0 250 C0 266.5 0 283 0 300 C-82.5 300 -165 300 -250 300 C-250 283.5 -250 267 -250 250 C-217 250 -184 250 -150 250 C-150 233.5 -150 217 -150 200 C-166.5 200 -183 200 -200 200 C-200 183.5 -200 167 -200 150 C-216.5 150 -233 150 -250 150 C-250 133.5 -250 117 -250 100 C-233.5 100 -217 100 -200 100 C-200 83.5 -200 67 -200 50 C-134 50 -68 50 0 50 C0 33.5 0 17 0 0 Z " fill="#404040" transform="translate(500,250)"/>
<path d="M0 0 C16.5 0 33 0 50 0 C50 49.5 50 99 50 150 C66.5 150 83 150 100 150 C100 166.5 100 183 100 200 C149.5 200 199 200 250 200 C250 216.5 250 233 250 250 C332.5 250 415 250 500 250 C500 233.5 500 217 500 200 C549.5 200 599 200 650 200 C650 183.5 650 167 650 150 C666.5 150 683 150 700 150 C700 100.5 700 51 700 0 C716.5 0 733 0 750 0 C750 66 750 132 750 200 C733.5 200 717 200 700 200 C700 216.5 700 233 700 250 C683.5 250 667 250 650 250 C650 266.5 650 283 650 300 C600.5 300 551 300 500 300 C500 316.5 500 333 500 350 C417.5 350 335 350 250 350 C250 333.5 250 317 250 300 C200.5 300 151 300 100 300 C100 283.5 100 267 100 250 C83.5 250 67 250 50 250 C50 233.5 50 217 50 200 C33.5 200 17 200 0 200 C0 134 0 68 0 0 Z " fill="#222222" transform="translate(0,300)"/>
<path d="M0 0 C49.5 0 99 0 150 0 C150 16.5 150 33 150 50 C166.5 50 183 50 200 50 C200 66.5 200 83 200 100 C183.5 100 167 100 150 100 C150 116.5 150 133 150 150 C100.5 150 51 150 0 150 C0 133.5 0 117 0 100 C-16.5 100 -33 100 -50 100 C-50 83.5 -50 67 -50 50 C-33.5 50 -17 50 0 50 C0 33.5 0 17 0 0 Z " fill="#FFD800" transform="translate(300,300)"/>
<path d="M0 0 C82.5 0 165 0 250 0 C250 16.5 250 33 250 50 C167.5 50 85 50 0 50 C0 33.5 0 17 0 0 Z " fill="#111111" transform="translate(250,600)"/>
<path d="M0 0 C82.5 0 165 0 250 0 C250 16.5 250 33 250 50 C167.5 50 85 50 0 50 C0 33.5 0 17 0 0 Z " fill="#262626" transform="translate(250,550)"/>
<path d="M0 0 C33 0 66 0 100 0 C100 16.5 100 33 100 50 C83.5 50 67 50 50 50 C50 66.5 50 83 50 100 C0.5 100 -49 100 -100 100 C-100 83.5 -100 67 -100 50 C-67 50 -34 50 0 50 C0 33.5 0 17 0 0 Z " fill="#FFFFFF" transform="translate(400,350)"/>
<path d="M0 0 C82.5 0 165 0 250 0 C250 16.5 250 33 250 50 C167.5 50 85 50 0 50 C0 33.5 0 17 0 0 Z " fill="#212121" transform="translate(250,150)"/>
<path d="M0 0 C49.5 0 99 0 150 0 C150 16.5 150 33 150 50 C100.5 50 51 50 0 50 C0 33.5 0 17 0 0 Z " fill="#111111" transform="translate(500,550)"/>
<path d="M0 0 C49.5 0 99 0 150 0 C150 16.5 150 33 150 50 C100.5 50 51 50 0 50 C0 33.5 0 17 0 0 Z " fill="#111111" transform="translate(100,550)"/>
<path d="M0 0 C49.5 0 99 0 150 0 C150 16.5 150 33 150 50 C100.5 50 51 50 0 50 C0 33.5 0 17 0 0 Z " fill="#262626" transform="translate(500,500)"/>
<path d="M0 0 C49.5 0 99 0 150 0 C150 16.5 150 33 150 50 C100.5 50 51 50 0 50 C0 33.5 0 17 0 0 Z " fill="#262626" transform="translate(100,500)"/>
<path d="M0 0 C49.5 0 99 0 150 0 C150 16.5 150 33 150 50 C100.5 50 51 50 0 50 C0 33.5 0 17 0 0 Z " fill="#212121" transform="translate(500,200)"/>
<path d="M0 0 C49.5 0 99 0 150 0 C150 16.5 150 33 150 50 C100.5 50 51 50 0 50 C0 33.5 0 17 0 0 Z " fill="#212121" transform="translate(100,200)"/>
<path d="M0 0 C33 0 66 0 100 0 C100 16.5 100 33 100 50 C67 50 34 50 0 50 C0 33.5 0 17 0 0 Z " fill="#515151" transform="translate(250,450)"/>
<path d="M0 0 C33 0 66 0 100 0 C100 16.5 100 33 100 50 C67 50 34 50 0 50 C0 33.5 0 17 0 0 Z " fill="#515151" transform="translate(500,400)"/>
<path d="M0 0 C33 0 66 0 100 0 C100 16.5 100 33 100 50 C67 50 34 50 0 50 C0 33.5 0 17 0 0 Z " fill="#515151" transform="translate(150,300)"/>
<path d="M0 0 C33 0 66 0 100 0 C100 16.5 100 33 100 50 C67 50 34 50 0 50 C0 33.5 0 17 0 0 Z " fill="#515151" transform="translate(400,250)"/>
<path d="M0 0 C16.5 0 33 0 50 0 C50 16.5 50 33 50 50 C33.5 50 17 50 0 50 C0 33.5 0 17 0 0 Z " fill="#111111" transform="translate(650,500)"/>
<path d="M0 0 C16.5 0 33 0 50 0 C50 16.5 50 33 50 50 C33.5 50 17 50 0 50 C0 33.5 0 17 0 0 Z " fill="#111111" transform="translate(50,500)"/>
<path d="M0 0 C16.5 0 33 0 50 0 C50 16.5 50 33 50 50 C33.5 50 17 50 0 50 C0 33.5 0 17 0 0 Z " fill="#515151" transform="translate(400,450)"/>
<path d="M0 0 C16.5 0 33 0 50 0 C50 16.5 50 33 50 50 C33.5 50 17 50 0 50 C0 33.5 0 17 0 0 Z " fill="#515151" transform="translate(150,400)"/>
<path d="M0 0 C16.5 0 33 0 50 0 C50 16.5 50 33 50 50 C33.5 50 17 50 0 50 C0 33.5 0 17 0 0 Z " fill="#515151" transform="translate(600,350)"/>
<path d="M0 0 C16.5 0 33 0 50 0 C50 16.5 50 33 50 50 C33.5 50 17 50 0 50 C0 33.5 0 17 0 0 Z " fill="#262626" transform="translate(350,350)"/>
<path d="M0 0 C16.5 0 33 0 50 0 C50 16.5 50 33 50 50 C33.5 50 17 50 0 50 C0 33.5 0 17 0 0 Z " fill="#515151" transform="translate(100,350)"/>
<path d="M0 0 C16.5 0 33 0 50 0 C50 16.5 50 33 50 50 C33.5 50 17 50 0 50 C0 33.5 0 17 0 0 Z " fill="#515151" transform="translate(550,300)"/>
<path d="M0 0 C16.5 0 33 0 50 0 C50 16.5 50 33 50 50 C33.5 50 17 50 0 50 C0 33.5 0 17 0 0 Z " fill="#212121" transform="translate(650,250)"/>
<path d="M0 0 C16.5 0 33 0 50 0 C50 16.5 50 33 50 50 C33.5 50 17 50 0 50 C0 33.5 0 17 0 0 Z " fill="#515151" transform="translate(300,250)"/>
<path d="M0 0 C16.5 0 33 0 50 0 C50 16.5 50 33 50 50 C33.5 50 17 50 0 50 C0 33.5 0 17 0 0 Z " fill="#212121" transform="translate(50,250)"/>
</svg>
